<?xml version="1.0" encoding="utf-8"?>

<!-- Uploaded to: SVG Repo, www.svgrepo.com, Generator: SVG Repo Mixer Tools -->
<svg fill="#000000" height="800px" width="800px" version="1.1" id="Icons" xmlns="http://www.w3.org/2000/svg" xmlns:xlink="http://www.w3.org/1999/xlink" 
	 viewBox="0 0 32 32" xml:space="preserve">
<g>
	<path d="M16,28c-0.3,0-0.5-0.1-0.7-0.3l-6-6c-0.4-0.4-0.4-1,0-1.4s1-0.4,1.4,0l5.3,5.3l5.3-5.3c0.4-0.4,1-0.4,1.4,0s0.4,1,0,1.4
		l-6,6C16.5,27.9,16.3,28,16,28z"/>
</g>
<g>
	<path d="M16,28c-0.6,0-1-0.4-1-1V5c0-0.6,0.4-1,1-1s1,0.4,1,1v22C17,27.6,16.6,28,16,28z"/>
</g>
</svg>