<svg width="132" height="57" viewBox="0 0 132 57" fill="none" xmlns="http://www.w3.org/2000/svg">
<path d="M100.018 56.576V49.984H132V56.576H100.018Z" fill="#FD366E"/>
<path d="M90.195 48.128C83.667 48.128 79.379 45.184 79.379 38.08V21.248H73.555V14.592H79.827V5.184H86.995V14.592H96.467V21.248H86.995V38.016C86.995 40.384 87.955 41.408 90.259 41.408H96.083V48.128H90.195Z" fill="white"/>
<path d="M64.608 9.408C61.856 9.408 59.808 7.36 59.808 4.672C59.808 2.048 61.856 0 64.608 0C67.36 0 69.408 2.048 69.408 4.672C69.408 7.36 67.36 9.408 64.608 9.408ZM60.768 48.128V21.248H54.88V14.592H68.32V48.128H60.768Z" fill="white"/>
<path d="M21.235 48.128V14.592H28.787V18.432H29.363C30.835 15.872 33.907 13.76 38.387 13.76C45.747 13.76 50.419 19.264 50.419 26.176V48.128H42.867V27.968C42.867 23.808 39.923 20.928 36.083 20.928C31.923 20.928 28.787 24.128 28.787 28.352V48.128H21.235Z" fill="white"/>
<path d="M9.728 9.408C6.976 9.408 4.928 7.36 4.928 4.672C4.928 2.048 6.976 0 9.728 0C12.48 0 14.528 2.048 14.528 4.672C14.528 7.36 12.48 9.408 9.728 9.408ZM5.888 48.128V21.248H0V14.592H13.44V48.128H5.888Z" fill="white"/>
</svg>
