<svg width="65" height="32" viewBox="0 0 65 32" fill="none" xmlns="http://www.w3.org/2000/svg">
<path d="M59.8679 32C55.5426 32 52.7015 30.0426 52.7015 25.3191V14.1277H48.8427V9.70213H52.9983V3.44681H57.7477V9.70213H64.0236V14.1277H57.7477V25.2766C57.7477 26.8511 58.3837 27.5319 59.9103 27.5319H63.7691V32H59.8679Z" fill="white"/>
<path d="M59.8679 32C55.5426 32 52.7015 30.0426 52.7015 25.3191V14.1277H48.8427V9.70213H52.9983V3.44681H57.7477V9.70213H64.0236V14.1277H57.7477V25.2766C57.7477 26.8511 58.3837 27.5319 59.9103 27.5319H63.7691V32H59.8679Z" fill="url(#paint0_linear_239_6967)" fill-opacity="0.15"/>
<path d="M42.9147 6.25532C41.0913 6.25532 39.7343 4.89362 39.7343 3.10638C39.7343 1.3617 41.0913 0 42.9147 0C44.7381 0 46.095 1.3617 46.095 3.10638C46.095 4.89362 44.7381 6.25532 42.9147 6.25532ZM40.3704 32V14.1277H36.4692V9.70213H45.3741V32H40.3704Z" fill="white"/>
<path d="M42.9147 6.25532C41.0913 6.25532 39.7343 4.89362 39.7343 3.10638C39.7343 1.3617 41.0913 0 42.9147 0C44.7381 0 46.095 1.3617 46.095 3.10638C46.095 4.89362 44.7381 6.25532 42.9147 6.25532ZM40.3704 32V14.1277H36.4692V9.70213H45.3741V32H40.3704Z" fill="url(#paint1_linear_239_6967)" fill-opacity="0.15"/>
<path d="M14.1769 32V9.70213H19.1807V12.2553H19.5623C20.5376 10.5532 22.573 9.14894 25.5413 9.14894C30.4179 9.14894 33.5134 12.8085 33.5134 17.4043V32H28.5097V18.5957C28.5097 15.8298 26.5591 13.9149 24.0148 13.9149C21.2585 13.9149 19.1807 16.0426 19.1807 18.8511V32H14.1769Z" fill="white"/>
<path d="M14.1769 32V9.70213H19.1807V12.2553H19.5623C20.5376 10.5532 22.573 9.14894 25.5413 9.14894C30.4179 9.14894 33.5134 12.8085 33.5134 17.4043V32H28.5097V18.5957C28.5097 15.8298 26.5591 13.9149 24.0148 13.9149C21.2585 13.9149 19.1807 16.0426 19.1807 18.8511V32H14.1769Z" fill="url(#paint2_linear_239_6967)" fill-opacity="0.15"/>
<path d="M6.55268 6.25532C4.72928 6.25532 3.37234 4.89362 3.37234 3.10638C3.37234 1.3617 4.72928 0 6.55268 0C8.37608 0 9.73303 1.3617 9.73303 3.10638C9.73303 4.89362 8.37608 6.25532 6.55268 6.25532ZM4.0084 32V14.1277H0.107178V9.70213H9.01215V32H4.0084Z" fill="white"/>
<path d="M6.55268 6.25532C4.72928 6.25532 3.37234 4.89362 3.37234 3.10638C3.37234 1.3617 4.72928 0 6.55268 0C8.37608 0 9.73303 1.3617 9.73303 3.10638C9.73303 4.89362 8.37608 6.25532 6.55268 6.25532ZM4.0084 32V14.1277H0.107178V9.70213H9.01215V32H4.0084Z" fill="url(#paint3_linear_239_6967)" fill-opacity="0.15"/>
<defs>
<linearGradient id="paint0_linear_239_6967" x1="32.0654" y1="0" x2="32.0654" y2="32.1312" gradientUnits="userSpaceOnUse">
<stop stop-opacity="0"/>
<stop offset="1"/>
</linearGradient>
<linearGradient id="paint1_linear_239_6967" x1="32.0654" y1="0" x2="32.0654" y2="32.1312" gradientUnits="userSpaceOnUse">
<stop stop-opacity="0"/>
<stop offset="1"/>
</linearGradient>
<linearGradient id="paint2_linear_239_6967" x1="32.0654" y1="0" x2="32.0654" y2="32.1312" gradientUnits="userSpaceOnUse">
<stop stop-opacity="0"/>
<stop offset="1"/>
</linearGradient>
<linearGradient id="paint3_linear_239_6967" x1="32.0654" y1="0" x2="32.0654" y2="32.1312" gradientUnits="userSpaceOnUse">
<stop stop-opacity="0"/>
<stop offset="1"/>
</linearGradient>
</defs>
</svg>
